<svg width="240" height="60" viewBox="0 0 240 60" fill="none" xmlns="http://www.w3.org/2000/svg">
<path d="M55.9929 1.57819C55.8863 1.75812 55.6131 2.15131 55.3932 2.46453C55.1666 2.77776 54.7334 3.4042 54.4135 3.86404C54.1003 4.32387 53.6738 4.93699 53.4672 5.23021C53.2606 5.52344 52.9607 5.94996 52.8074 6.18321C52.6475 6.40979 52.3809 6.78966 52.2143 7.02957C51.4879 8.0692 51.2613 8.40908 50.7681 9.12882C50.4749 9.54867 50.0751 10.1351 49.8685 10.4284C49.6619 10.7216 49.3686 11.1414 49.2154 11.3614C49.0621 11.5813 48.8022 11.9545 48.6422 12.1944C48.329 12.6409 47.8692 13.3073 47.1294 14.3936C46.8895 14.7402 46.5696 15.2067 46.4164 15.4266C46.2631 15.6465 46.0032 16.0197 45.8366 16.2596C45.6766 16.4995 45.3034 17.0393 45.0169 17.4592C44.7236 17.879 44.3304 18.4522 44.1438 18.7254C43.9506 18.9986 43.564 19.5518 43.2908 19.9583C43.0109 20.3581 42.6444 20.898 42.4644 21.1579C42.0046 21.8243 41.3382 22.7973 40.885 23.457C40.6717 23.7703 40.3652 24.2168 40.1986 24.4567C40.032 24.6966 39.6788 25.2031 39.4189 25.5896C38.8857 26.3693 38.3792 27.1024 37.7261 28.0554C37.4862 28.4019 37.1597 28.8818 36.9997 29.1217C36.8331 29.3616 36.6465 29.6282 36.5799 29.7148C36.3999 29.9414 36.4199 30.0214 36.7398 30.5345C36.8931 30.7878 37.053 31.0477 37.0863 31.1076C37.193 31.2876 37.5062 31.7741 37.9127 32.3872C38.1126 32.7004 38.3126 33.007 38.3526 33.0669C38.4725 33.2735 38.9857 34.0733 39.3189 34.5864C39.6121 35.0396 40.0653 35.746 40.2719 36.0792C40.3185 36.1525 40.4785 36.4058 40.6384 36.639C40.7917 36.8723 40.9183 37.0722 40.9183 37.0855C40.9183 37.0988 41.0449 37.2988 41.2049 37.532C41.3582 37.7653 41.5181 38.0185 41.5648 38.0918C41.6114 38.1585 41.7713 38.425 41.9313 38.6716C42.0912 38.9182 42.2512 39.1781 42.2845 39.2381C42.3845 39.4047 43.2442 40.7242 43.3774 40.9175C43.4441 41.0108 43.5107 41.1307 43.5374 41.184C43.564 41.2374 43.7306 41.5106 43.9106 41.7838C44.0972 42.0571 44.3704 42.4902 44.5304 42.7368C44.6903 42.9901 44.8636 43.2633 44.9169 43.3499C44.9702 43.4366 45.1501 43.7231 45.3167 43.9831C45.4834 44.243 45.6633 44.5295 45.7166 44.6095C45.8699 44.8494 46.403 45.7024 46.5363 45.9224C46.5963 46.0357 46.6363 46.1556 46.6163 46.1889C46.5696 46.2622 41.4581 46.2689 38.5325 46.2023L36.5799 46.1623L36.0001 45.2026C35.6802 44.6761 35.367 44.163 35.307 44.063C35.2403 43.9631 35.1604 43.8231 35.1204 43.7498C35.0804 43.6765 34.9938 43.5232 34.9205 43.4166C34.8471 43.3033 34.7605 43.1567 34.7205 43.0834C34.6805 43.0101 34.6006 42.8701 34.5339 42.7702C34.4739 42.6768 34.1541 42.157 33.8208 41.6172C33.4943 41.0841 33.1744 40.5709 33.1211 40.4843C33.0678 40.3977 32.7945 39.9645 32.5213 39.518C32.2481 39.0715 31.9748 38.6383 31.9215 38.5517C31.8682 38.465 31.6883 38.1785 31.5217 37.9185C31.3551 37.6586 31.1685 37.3654 31.1085 37.2654C31.0418 37.1655 30.9685 37.0389 30.9419 36.9855C30.9152 36.9322 30.7686 36.699 30.6087 36.4657C30.4487 36.2325 30.3221 36.0326 30.3221 36.0192C30.3221 35.9526 29.9689 35.4794 29.8889 35.4394C29.8289 35.3994 29.749 35.4861 29.6357 35.706C29.5424 35.8859 29.4024 36.1458 29.3225 36.2925C29.2358 36.4324 29.0226 36.8389 28.836 37.1855C28.656 37.532 28.3895 38.0252 28.2562 38.2851C26.7567 41.1107 26.3568 41.8905 24.9174 44.7628C24.2176 46.1623 23.6645 47.3419 23.6911 47.3818C23.8044 47.5618 23.9444 47.4085 25.044 45.8357C25.2172 45.5891 25.5171 45.156 25.7171 44.8761C26.2435 44.123 27.2365 42.6569 28.5761 40.6376C29.2225 39.6579 29.789 38.8582 29.8289 38.8582C29.8756 38.8515 29.9222 38.9049 29.9422 38.9648C29.9689 39.0315 30.1288 39.3514 30.3154 39.6846C30.4954 40.0111 30.7486 40.4776 30.8686 40.7175C31.3751 41.6705 31.7149 42.3103 31.9548 42.7502C32.0948 43.0101 32.328 43.4432 32.4747 43.7165C32.7679 44.2563 33.0278 44.7494 33.3277 45.2959C33.4343 45.4892 33.6076 45.8091 33.7142 45.9957C33.9208 46.3822 34.2607 46.9953 34.4939 47.4152C34.5806 47.5618 34.7272 47.835 34.8272 48.0216C34.9271 48.2082 35.0604 48.4281 35.1204 48.5148L35.2337 48.668L43.0176 48.5947C47.7359 48.5548 50.8215 48.5014 50.8614 48.4615C50.9014 48.4215 50.7681 48.1816 50.5082 47.8084C50.0284 47.1219 49.6485 46.5755 48.9421 45.5492C48.6689 45.1426 48.2824 44.5895 48.0891 44.3163C47.8958 44.043 47.536 43.5166 47.2827 43.15C46.8095 42.4569 46.3031 41.7305 45.7899 40.9841C45.63 40.7442 45.2701 40.2311 45.0035 39.8379C44.737 39.438 44.2838 38.7782 44.0039 38.3717C43.2775 37.3054 42.6444 36.3791 41.838 35.1862C41.0383 33.9999 40.2919 32.907 39.7921 32.1873C38.4392 30.228 38.2992 29.988 38.3992 29.8681C38.4525 29.8081 38.5192 29.7081 38.5458 29.6548C38.5658 29.6015 38.7391 29.3283 38.919 29.055C39.099 28.7818 39.3722 28.3486 39.5321 28.0954C39.6921 27.8421 39.8654 27.5689 39.9187 27.4889C39.972 27.409 40.1453 27.1357 40.3052 26.8825C40.4651 26.6292 40.7384 26.1961 40.9183 25.9228C41.0983 25.6496 41.3715 25.2164 41.5314 24.9698C41.6914 24.7166 41.8646 24.4434 41.918 24.3567C41.9713 24.2701 42.1445 23.9969 42.3045 23.7436C42.4644 23.497 42.7843 22.9905 43.0176 22.624C43.2508 22.2575 43.5707 21.751 43.7306 21.5044C43.8906 21.2512 44.0639 20.9779 44.1172 20.898C44.2238 20.7313 44.7769 19.8583 44.8836 19.6717C44.9236 19.6117 45.0702 19.3785 45.2168 19.1586C45.3634 18.9387 45.51 18.7054 45.55 18.6454C45.6233 18.5188 45.9565 17.9923 46.6163 16.9594C46.8495 16.5928 47.2094 16.0197 47.416 15.6931C47.6226 15.3599 47.9358 14.8668 48.1224 14.5935C48.3023 14.3203 48.4756 14.0337 48.5156 13.9604C48.5556 13.8871 48.7289 13.6006 48.9088 13.3273C49.202 12.8875 49.8885 11.8079 50.0817 11.4747C50.1217 11.4147 50.2683 11.1814 50.4149 10.9615C50.5615 10.7416 50.7082 10.5083 50.7481 10.4484C50.8481 10.2817 51.5212 9.20213 52.0144 8.42907C52.2476 8.06254 52.6141 7.48274 52.8274 7.14286C53.0407 6.79632 53.2606 6.44978 53.3139 6.36314C53.3672 6.27651 53.5471 5.98994 53.7138 5.73004C53.8804 5.47013 54.0603 5.18356 54.1136 5.09693C54.1669 5.01029 54.3868 4.65709 54.6001 4.31721C54.8134 3.97733 55.1332 3.47084 55.3198 3.19761C55.4998 2.92437 55.6731 2.63781 55.713 2.5645C55.7464 2.49119 55.9263 2.19796 56.1129 1.9114C56.4794 1.3316 56.5061 1.26496 56.3195 1.26496C56.2462 1.26496 56.1196 1.39158 55.9929 1.57819Z" fill="#121212"/>
<path d="M24.2521 11.4276C24.2321 11.4409 20.8133 11.4609 16.6548 11.4609C12.4896 11.4675 9.04417 11.4942 8.99752 11.5275C8.90422 11.5875 9.32407 12.2539 10.5303 13.96C10.7636 14.2865 11.1701 14.873 11.43 15.2595C11.6899 15.6461 12.0964 16.2259 12.3297 16.5591C12.5629 16.8856 13.0094 17.5321 13.316 17.9919C13.8358 18.7516 14.2356 19.3447 15.0554 20.5243C15.2153 20.7642 15.6351 21.3773 15.9884 21.8905C16.9813 23.3566 17.7077 24.4296 18.2476 25.2226C18.5275 25.6225 19.0539 26.4022 19.4271 26.9554C19.8003 27.5018 20.2402 28.1483 20.4068 28.3882C20.5667 28.6281 20.8799 29.0746 21.0932 29.3878C21.3065 29.701 21.4797 30.0009 21.4797 30.0676C21.4731 30.1276 21.3531 30.3475 21.2065 30.5674C20.9799 30.9073 20.7267 31.2871 20.4934 31.6603C20.4601 31.7203 20.2935 31.9869 20.1269 32.2468C19.9603 32.5134 19.7937 32.7799 19.7603 32.8399C19.7204 32.8999 19.5737 33.1332 19.4205 33.3531C19.2739 33.5797 19.1339 33.7996 19.1072 33.8529C19.0806 33.9062 18.914 34.1794 18.734 34.4527C18.5474 34.7259 18.2742 35.1591 18.1143 35.4057C17.9543 35.6589 17.7811 35.9322 17.7277 36.0188C17.6744 36.1054 17.4945 36.392 17.3279 36.6519C17.1613 36.9118 16.9813 37.1984 16.928 37.285C16.8747 37.3716 16.7014 37.6449 16.5415 37.8981C16.3815 38.1447 16.0617 38.6512 15.8284 39.0177C15.5952 39.3843 15.2753 39.8907 15.1153 40.1373C14.9554 40.3906 14.7755 40.6705 14.7155 40.7704C14.6488 40.8704 14.5755 40.997 14.5489 41.0503C14.5155 41.1036 14.2956 41.4502 14.0557 41.8167C13.8158 42.1833 13.5292 42.6298 13.4226 42.803C13.316 42.983 13.1827 43.1962 13.1294 43.2829C13.0761 43.3695 12.9028 43.6427 12.7428 43.896C12.5829 44.1426 12.263 44.649 12.0298 45.0156C11.7965 45.3821 11.4766 45.8886 11.3167 46.1352C11.1567 46.3884 10.9768 46.6683 10.9168 46.7683C10.8502 46.8683 10.7769 46.9949 10.7502 47.0482C10.7236 47.1015 10.5836 47.3281 10.437 47.548C10.2837 47.7746 10.1304 48.0145 10.0838 48.0878C9.88387 48.4144 9.21744 49.4807 8.83091 50.0804C8.59766 50.447 8.23112 51.0268 8.01787 51.3667C7.59802 52.0397 7.57802 52.0731 7.13152 52.7795C6.96491 53.0394 6.79164 53.3193 6.74499 53.3993C6.69834 53.4792 6.46509 53.8458 6.23184 54.2123C5.99859 54.5788 5.63205 55.1586 5.41879 55.4985C5.20554 55.8384 4.98561 56.1916 4.9323 56.2782C3.64609 58.3175 3.39951 58.7174 3.39951 58.784C3.39951 58.8173 3.45283 58.844 3.52613 58.844C3.59944 58.844 3.72606 58.7174 3.85268 58.5241C3.95931 58.3508 4.19923 57.9976 4.37916 57.7444C4.75903 57.2112 5.23219 56.5315 5.64538 55.925C5.97859 55.4452 6.37845 54.8654 6.83162 54.2123C7.01156 53.9524 7.29146 53.5525 7.45807 53.3126C7.61801 53.0727 7.87792 52.6995 8.03119 52.4796C8.60432 51.6532 8.91754 51.2 9.23077 50.7469C9.40404 50.487 9.68394 50.0938 9.84388 49.8605C10.9568 48.2544 11.25 47.8279 11.8298 46.9816C12.0897 46.595 12.443 46.0819 12.6162 45.8286C13.1494 45.0689 13.5292 44.5091 14.0291 43.7827C14.289 43.3962 14.6422 42.8897 14.8088 42.6498C14.9687 42.4098 15.2686 41.9767 15.4685 41.6834C16.115 40.7504 16.7481 39.8308 17.028 39.4176C17.1813 39.1977 17.4812 38.7645 17.6944 38.4513C18.1409 37.7982 18.8074 36.8318 19.2938 36.1321C19.4738 35.8655 19.6737 35.5723 19.727 35.4856C19.7803 35.399 19.9869 35.0925 20.1869 34.8059C20.3868 34.5193 20.7667 33.9729 21.0266 33.5863C21.2931 33.1998 21.653 32.6733 21.8263 32.4201C22.0062 32.1602 22.3727 31.627 22.6393 31.2338C22.9126 30.834 23.1925 30.4208 23.2724 30.3142C23.3924 30.1542 23.4057 30.0876 23.3524 29.9343C23.2924 29.7744 22.586 28.6481 22.2528 28.1749C22.1861 28.075 22.1262 27.975 22.1262 27.955C22.1262 27.935 22.0662 27.835 21.9995 27.7351C21.7996 27.4552 20.9599 26.1623 20.9333 26.089C20.9199 26.0557 20.78 25.8424 20.6267 25.6225C20.4734 25.4026 20.3268 25.176 20.3002 25.1227C20.2202 24.9494 19.3272 23.5632 19.0539 23.1767C18.9873 23.0767 18.9273 22.9834 18.9273 22.9634C18.9273 22.9501 18.7074 22.6036 18.4475 22.1971C18.1809 21.7905 17.841 21.2707 17.7011 21.0441C17.5545 20.8109 17.2746 20.371 17.068 20.0578C16.868 19.7446 16.5748 19.2781 16.4082 19.0249C16.2416 18.7649 16.0283 18.4384 15.935 18.2918C15.8351 18.1452 15.7351 17.9786 15.7085 17.9252C15.6818 17.8719 15.5152 17.5987 15.3353 17.3255C15.1487 17.0522 14.8754 16.619 14.7155 16.3725C14.5555 16.1192 14.3756 15.8393 14.3156 15.7394C14.249 15.6394 14.1757 15.5128 14.149 15.4595C14.1224 15.4061 13.9757 15.1729 13.8158 14.9463C13.6559 14.7131 13.5292 14.5131 13.5292 14.4931C13.5292 14.4798 13.4559 14.3532 13.3626 14.2199C13.2693 14.0866 13.196 13.9467 13.196 13.92C13.196 13.8867 15.4619 13.86 18.2276 13.86H23.2524L23.9389 14.9996C24.3187 15.6194 24.6786 16.2125 24.7386 16.3125C24.8052 16.4125 24.8918 16.5524 24.9252 16.6257C25.0118 16.779 25.1451 17.0122 25.3117 17.2721C25.3717 17.3721 25.7382 17.9652 26.1247 18.5917C26.5113 19.2181 26.8711 19.8046 26.9245 19.8912C26.9778 19.9778 27.2443 20.4044 27.5109 20.8375C27.7775 21.2707 28.1907 21.9238 28.4306 22.2904C28.6638 22.6569 28.8771 23.0034 28.9037 23.0567C28.9304 23.1101 29.077 23.3433 29.237 23.5766C29.3969 23.8098 29.5235 24.0097 29.5235 24.0231C29.5235 24.0964 29.9434 24.6562 29.9967 24.6562C30.03 24.6562 30.09 24.5895 30.1233 24.5029C30.19 24.3629 30.3099 24.1364 30.8697 23.1234C31.1963 22.5236 31.7227 21.524 33.0289 19.0249C33.2622 18.585 34.0686 16.9922 34.8216 15.4861C36.0945 12.9537 36.2678 12.5272 36.0612 12.5272C36.0345 12.5272 35.8346 12.7738 35.6214 13.0736C35.4081 13.3802 35.1215 13.7734 34.9882 13.96C34.855 14.1399 34.6017 14.4931 34.4351 14.7464C34.2618 14.993 33.9819 15.3995 33.8087 15.6461C33.0889 16.6857 32.3825 17.732 31.2696 19.4047C30.6231 20.3844 30.0567 21.1841 30.0233 21.1841C29.9834 21.1907 29.8301 20.9575 29.6835 20.6709C29.5369 20.391 29.2636 19.8712 29.077 19.5247C28.8904 19.1781 28.5972 18.6183 28.4239 18.2918C28.2506 17.9586 28.0174 17.5254 27.9108 17.3255C27.6309 16.8256 27.4109 16.4191 26.9511 15.5594C26.7379 15.1529 26.5313 14.7797 26.4913 14.7131C26.458 14.6531 26.3513 14.4598 26.258 14.2799C26.1647 14.1066 26.0048 13.8134 25.9048 13.6268C25.7049 13.2936 25.4516 12.8204 25.0385 12.074C24.7452 11.5275 24.6253 11.3942 24.4387 11.3942C24.352 11.3942 24.2654 11.4076 24.2521 11.4276Z" fill="#121212"/>
<path d="M57.0483 14.2558V22.4392H64.3006V23.4192H57.0483V42.383C57.0483 43.9184 57.326 44.9965 57.8813 45.6172C58.4367 46.2379 59.2044 46.5482 60.1844 46.5482C61.1645 46.5482 62.0138 46.1562 62.7325 45.3722C63.4512 44.5555 64.0719 43.1997 64.5946 41.305L65.5747 41.55C65.248 43.4448 64.5946 45.0455 63.6146 46.3522C62.6672 47.6589 61.1971 48.3123 59.2044 48.3123C58.0937 48.3123 57.179 48.1653 56.4603 47.8713C55.7416 47.6099 55.1045 47.2179 54.5492 46.6952C53.8305 45.9439 53.3241 45.0455 53.0301 44.0001C52.7688 42.9547 52.6381 41.5663 52.6381 39.8349V23.4192H47.9339V22.4392H52.6381V14.9419C53.4548 14.9092 54.2388 14.8438 54.9902 14.7458C55.7416 14.6478 56.4276 14.4845 57.0483 14.2558ZM78.8293 21.7041C79.7114 21.7041 80.4791 21.8838 81.1324 22.2432C81.8185 22.6025 82.3412 23.0762 82.7005 23.6642C83.0925 24.2196 83.2885 24.8566 83.2885 25.5753C83.2885 26.392 83.0272 27.1107 82.5045 27.7314C82.0145 28.3521 81.3448 28.6624 80.4954 28.6624C79.8094 28.6624 79.205 28.4501 78.6823 28.0254C78.1597 27.5681 77.8983 26.931 77.8983 26.1143C77.8983 25.4936 78.0616 24.971 78.3883 24.5463C78.7477 24.0889 79.1397 23.7296 79.5644 23.4682C79.3357 23.1415 78.9927 22.9782 78.5353 22.9782C77.5226 22.9782 76.5916 23.2885 75.7422 23.9092C74.8928 24.4973 74.1741 25.265 73.5861 26.2123C72.9981 27.1597 72.5407 28.1724 72.2141 29.2505C71.8874 30.2959 71.724 31.2759 71.724 32.1906V42.5791C71.724 44.1798 72.1814 45.2578 73.0961 45.8132C74.0435 46.3359 75.3175 46.5972 76.9183 46.5972V47.6263C76.1669 47.5936 75.1052 47.5609 73.7331 47.5283C72.3611 47.4629 70.9073 47.4303 69.3719 47.4303C68.2612 47.4303 67.1505 47.4629 66.0398 47.5283C64.9617 47.5609 64.145 47.5936 63.5897 47.6263V46.5972C64.9291 46.5972 65.8764 46.3522 66.4318 45.8622C67.0198 45.3722 67.3138 44.4411 67.3138 43.0691V27.7314C67.3138 26.2613 67.0525 25.1833 66.5298 24.4973C66.0071 23.7786 65.0271 23.4192 63.5897 23.4192V22.3902C64.6351 22.4882 65.6478 22.5372 66.6278 22.5372C67.5752 22.5372 68.4736 22.4882 69.3229 22.3902C70.205 22.2595 71.0053 22.0798 71.724 21.8512V27.9764C72.0834 27.029 72.5897 26.0817 73.2431 25.1343C73.9291 24.1543 74.7458 23.3376 75.6932 22.6842C76.6406 22.0308 77.686 21.7041 78.8293 21.7041ZM89.4291 47.9693C88.0897 47.9693 86.93 47.7243 85.95 47.2343C84.9699 46.7116 84.2186 45.9929 83.6959 45.0782C83.2058 44.1635 82.9608 43.1017 82.9608 41.893C82.9608 40.4556 83.2875 39.2796 83.9409 38.3649C84.6269 37.4502 85.4926 36.7151 86.538 36.1598C87.5834 35.6044 88.6778 35.1471 89.8211 34.7877C90.9972 34.3957 92.1079 34.0363 93.1533 33.7097C94.1987 33.3503 95.048 32.942 95.7014 32.4846C96.3874 32.0273 96.7304 31.4229 96.7304 30.6715V27.6334C96.7304 26.2613 96.5181 25.216 96.0934 24.4973C95.7014 23.7786 95.1624 23.3049 94.4763 23.0762C93.7903 22.8149 93.0226 22.6842 92.1732 22.6842C91.3565 22.6842 90.4745 22.7985 89.5271 23.0272C88.6124 23.2559 87.8774 23.7296 87.322 24.4483C87.9427 24.5789 88.4817 24.9056 88.9391 25.4283C89.3965 25.951 89.6251 26.6207 89.6251 27.4374C89.6251 28.2541 89.3638 28.9075 88.8411 29.3975C88.3184 29.8548 87.6487 30.0835 86.832 30.0835C85.8846 30.0835 85.1823 29.7895 84.7249 29.2015C84.3002 28.5808 84.0879 27.8947 84.0879 27.1434C84.0879 26.294 84.3002 25.608 84.7249 25.0853C85.1496 24.5626 85.6886 24.0726 86.342 23.6152C87.0934 23.0925 88.0571 22.6515 89.2331 22.2922C90.4418 21.9002 91.7976 21.7041 93.3003 21.7041C94.6397 21.7041 95.7831 21.8675 96.7304 22.1942C97.6778 22.4882 98.4618 22.9292 99.0825 23.5172C99.9319 24.3013 100.487 25.265 100.749 26.4084C101.01 27.5191 101.141 28.8585 101.141 30.4265V44.0491C101.141 44.8658 101.255 45.4538 101.484 45.8132C101.745 46.1725 102.137 46.3522 102.66 46.3522C103.019 46.3522 103.362 46.2705 103.689 46.1072C104.015 45.9439 104.407 45.6825 104.865 45.3232L105.404 46.1562C104.718 46.6789 104.064 47.1199 103.444 47.4793C102.823 47.8059 101.99 47.9693 100.945 47.9693C99.9972 47.9693 99.2132 47.8059 98.5925 47.4793C97.9718 47.1526 97.4981 46.6789 97.1715 46.0582C96.8774 45.4048 96.7304 44.5881 96.7304 43.6081C95.8484 45.0782 94.7867 46.1725 93.5453 46.8912C92.3366 47.6099 90.9645 47.9693 89.4291 47.9693ZM91.1932 46.0092C92.2712 46.0092 93.2676 45.6989 94.1823 45.0782C95.1297 44.4575 95.9791 43.5264 96.7304 42.285V32.6806C96.3384 33.236 95.7667 33.7097 95.0154 34.1017C94.264 34.461 93.4473 34.8367 92.5653 35.2287C91.6832 35.5881 90.8338 36.0291 90.0171 36.5518C89.2331 37.0418 88.5797 37.6952 88.0571 38.5119C87.5344 39.3286 87.273 40.3903 87.273 41.697C87.273 43.0037 87.616 44.0491 88.3021 44.8332C89.0208 45.6172 89.9845 46.0092 91.1932 46.0092ZM112.952 56.8387C111.221 56.8387 109.588 56.659 108.052 56.2997C106.517 55.9403 105.275 55.3686 104.328 54.5846C103.413 53.8332 102.956 52.8695 102.956 51.6935C102.956 50.5501 103.413 49.57 104.328 48.7533C105.243 47.9366 106.484 47.3159 108.052 46.8912L108.346 47.6753C107.628 47.904 107.056 48.3613 106.631 49.0473C106.206 49.7334 105.994 50.5011 105.994 51.3504C105.994 52.8532 106.68 53.9966 108.052 54.7806C109.457 55.5973 111.27 56.0056 113.491 56.0056C114.962 56.0056 116.399 55.8096 117.804 55.4176C119.208 55.0583 120.368 54.4376 121.283 53.5555C122.198 52.6735 122.655 51.5138 122.655 50.0764C122.655 48.9983 122.263 48.1163 121.479 47.4303C120.727 46.7116 119.225 46.3522 116.971 46.3522H113.344C112.299 46.3522 111.286 46.2705 110.306 46.1072C109.326 45.9439 108.526 45.6009 107.905 45.0782C107.285 44.5555 106.974 43.7551 106.974 42.6771C106.974 41.5663 107.432 40.5046 108.346 39.4919C109.261 38.4465 110.943 37.3848 113.393 36.3068L113.981 36.7478C112.871 37.3358 111.907 37.9402 111.09 38.5609C110.274 39.1489 109.865 39.8513 109.865 40.668C109.865 41.7134 110.649 42.236 112.217 42.236H118.343C119.715 42.236 120.972 42.432 122.116 42.8241C123.292 43.2161 124.239 43.8368 124.958 44.6861C125.677 45.5355 126.036 46.6462 126.036 48.0183C126.036 49.5537 125.546 50.9911 124.566 52.3305C123.586 53.6699 122.116 54.7479 120.156 55.5646C118.228 56.414 115.827 56.8387 112.952 56.8387ZM113.197 37.1888C111.597 37.1888 110.143 36.9275 108.836 36.4048C107.53 35.8494 106.5 35.0001 105.749 33.8567C104.998 32.7133 104.622 31.2432 104.622 29.4465C104.622 27.6497 104.998 26.1797 105.749 25.0363C106.5 23.8929 107.53 23.0599 108.836 22.5372C110.143 21.9818 111.597 21.7041 113.197 21.7041C114.831 21.7041 116.285 21.9818 117.559 22.5372C118.865 23.0599 119.894 23.8929 120.646 25.0363C121.397 26.1797 121.773 27.6497 121.773 29.4465C121.773 31.2432 121.397 32.7133 120.646 33.8567C119.894 35.0001 118.865 35.8494 117.559 36.4048C116.285 36.9275 114.831 37.1888 113.197 37.1888ZM113.197 36.3068C114.439 36.3068 115.403 35.8168 116.089 34.8367C116.807 33.8567 117.167 32.0599 117.167 29.4465C117.167 26.833 116.807 25.0363 116.089 24.0562C115.403 23.0762 114.439 22.5862 113.197 22.5862C111.989 22.5862 111.025 23.0762 110.306 24.0562C109.588 25.0363 109.228 26.833 109.228 29.4465C109.228 32.0599 109.588 33.8567 110.306 34.8367C111.025 35.8168 111.989 36.3068 113.197 36.3068ZM120.254 25.7713L119.372 25.4283C119.829 24.3176 120.613 23.3376 121.724 22.4882C122.835 21.6388 123.994 21.2141 125.203 21.2141C126.052 21.2141 126.738 21.4591 127.261 21.9492C127.784 22.4065 128.045 23.1089 128.045 24.0562C128.045 25.069 127.767 25.7877 127.212 26.2123C126.689 26.6044 126.15 26.8004 125.595 26.8004C125.105 26.8004 124.648 26.637 124.223 26.3103C123.798 25.951 123.553 25.3956 123.488 24.6443C123.423 23.8929 123.651 22.9292 124.174 21.7532L124.811 21.9002C123.439 22.4228 122.459 22.9782 121.871 23.5662C121.283 24.1216 120.744 24.8566 120.254 25.7713ZM130.315 47.6263V11.2667H133.794V47.6263H130.315ZM151.462 47.8713C148.783 47.8713 146.431 47.3159 144.406 46.2052C142.38 45.0618 140.796 43.5101 139.652 41.55C138.509 39.5573 137.937 37.2868 137.937 34.7387C137.937 32.1906 138.476 29.9365 139.554 27.9764C140.665 26.0163 142.168 24.4809 144.063 23.3702C145.99 22.2268 148.146 21.6551 150.531 21.6551C152.948 21.6551 155.088 22.2105 156.95 23.3212C158.845 24.3993 160.331 25.9347 161.409 27.9274C162.487 29.8875 163.026 32.1579 163.026 34.7387C163.026 34.9021 163.01 35.0817 162.977 35.2777C162.977 35.4411 162.977 35.6208 162.977 35.8168H140.584V33.2196H161.115L159.743 34.2487C159.743 32.3866 159.335 30.7369 158.518 29.2995C157.734 27.8294 156.656 26.686 155.284 25.8693C153.912 25.0526 152.328 24.6443 150.531 24.6443C148.767 24.6443 147.182 25.0526 145.778 25.8693C144.373 26.686 143.279 27.8294 142.495 29.2995C141.711 30.7695 141.319 32.4519 141.319 34.3467V34.8857C141.319 36.8458 141.743 38.5772 142.593 40.0799C143.475 41.55 144.683 42.7097 146.219 43.5591C147.787 44.3758 149.567 44.7842 151.56 44.7842C153.128 44.7842 154.582 44.5065 155.921 43.9511C157.293 43.3958 158.469 42.5464 159.449 41.403L161.409 43.6571C160.266 45.0292 158.829 46.0745 157.097 46.7932C155.398 47.5119 153.52 47.8713 151.462 47.8713ZM182.572 47.6263V41.942L182.425 41.011V31.5046C182.425 29.3158 181.804 27.6334 180.563 26.4574C179.354 25.2813 177.541 24.6933 175.124 24.6933C173.457 24.6933 171.873 24.971 170.37 25.5263C168.868 26.0817 167.594 26.8167 166.548 27.7314L164.98 25.1343C166.287 24.0236 167.855 23.1742 169.684 22.5862C171.514 21.9655 173.441 21.6551 175.467 21.6551C178.799 21.6551 181.363 22.4882 183.16 24.1543C184.989 25.7877 185.904 28.2868 185.904 31.6516V47.6263H182.572ZM173.702 47.8713C171.775 47.8713 170.093 47.5609 168.655 46.9402C167.25 46.2869 166.172 45.4048 165.421 44.2941C164.67 43.1507 164.294 41.844 164.294 40.374C164.294 39.0346 164.604 37.8258 165.225 36.7478C165.878 35.6371 166.924 34.755 168.361 34.1017C169.831 33.4157 171.791 33.0726 174.241 33.0726H183.111V35.6698H174.339C171.857 35.6698 170.125 36.1108 169.145 36.9928C168.198 37.8748 167.724 38.9692 167.724 40.276C167.724 41.746 168.296 42.9221 169.439 43.8041C170.583 44.6861 172.183 45.1272 174.241 45.1272C176.202 45.1272 177.884 44.6861 179.289 43.8041C180.726 42.8894 181.771 41.5827 182.425 39.8839L183.209 42.285C182.555 43.9838 181.412 45.3395 179.779 46.3522C178.178 47.3649 176.153 47.8713 173.702 47.8713ZM224.559 21.6551C226.65 21.6551 228.463 22.0635 229.998 22.8802C231.566 23.6642 232.775 24.873 233.624 26.5064C234.506 28.1398 234.947 30.1978 234.947 32.6806V47.6263H231.468V33.0236C231.468 30.3122 230.815 28.2704 229.508 26.8984C228.234 25.4936 226.421 24.7913 224.069 24.7913C222.305 24.7913 220.769 25.167 219.463 25.9183C218.189 26.637 217.192 27.6987 216.474 29.1035C215.788 30.4755 215.445 32.1416 215.445 34.1017V47.6263H211.965V33.0236C211.965 30.3122 211.312 28.2704 210.005 26.8984C208.699 25.4936 206.869 24.7913 204.517 24.7913C202.786 24.7913 201.267 25.167 199.96 25.9183C198.653 26.637 197.64 27.6987 196.922 29.1035C196.236 30.4755 195.893 32.1416 195.893 34.1017V47.6263H192.414V21.9002H195.746V28.8585L195.207 27.6334C195.991 25.7713 197.248 24.3176 198.98 23.2722C200.744 22.1942 202.818 21.6551 205.203 21.6551C207.719 21.6551 209.858 22.2922 211.622 23.5662C213.387 24.8076 214.53 26.686 215.053 29.2015L213.681 28.6624C214.432 26.5717 215.755 24.8893 217.65 23.6152C219.577 22.3085 221.88 21.6551 224.559 21.6551Z" fill="#121212"/>
</svg>
