<svg width="240" height="60" viewBox="0 0 240 60" fill="none" xmlns="http://www.w3.org/2000/svg">
<path d="M55.9929 1.57811C55.8863 1.75805 55.6131 2.15124 55.3932 2.46446C55.1666 2.77768 54.7334 3.40412 54.4135 3.86396C54.1003 4.3238 53.6738 4.93691 53.4672 5.23014C53.2606 5.52337 52.9607 5.94988 52.8074 6.18313C52.6475 6.40972 52.3809 6.78958 52.2143 7.0295C51.4879 8.06913 51.2613 8.409 50.7681 9.12875C50.4749 9.5486 50.0751 10.1351 49.8685 10.4283C49.6619 10.7215 49.3686 11.1414 49.2154 11.3613C49.0621 11.5812 48.8022 11.9544 48.6422 12.1943C48.329 12.6408 47.8692 13.3073 47.1294 14.3935C46.8895 14.7401 46.5696 15.2066 46.4164 15.4265C46.2631 15.6464 46.0032 16.0196 45.8366 16.2595C45.6766 16.4995 45.3034 17.0393 45.0169 17.4591C44.7236 17.879 44.3304 18.4521 44.1438 18.7253C43.9506 18.9986 43.564 19.5517 43.2908 19.9582C43.0109 20.3581 42.6444 20.8979 42.4644 21.1578C42.0046 21.8242 41.3382 22.7972 40.885 23.457C40.6717 23.7702 40.3652 24.2167 40.1986 24.4566C40.032 24.6965 39.6788 25.203 39.4189 25.5895C38.8857 26.3693 38.3792 27.1023 37.7261 28.0553C37.4862 28.4019 37.1597 28.8817 36.9997 29.1216C36.8331 29.3615 36.6465 29.6281 36.5799 29.7147C36.3999 29.9413 36.4199 30.0213 36.7398 30.5344C36.8931 30.7877 37.053 31.0476 37.0863 31.1076C37.193 31.2875 37.5062 31.774 37.9127 32.3871C38.1126 32.7003 38.3126 33.0069 38.3526 33.0669C38.4725 33.2735 38.9857 34.0732 39.3189 34.5863C39.6121 35.0395 40.0653 35.7459 40.2719 36.0791C40.3185 36.1524 40.4785 36.4057 40.6384 36.6389C40.7917 36.8722 40.9183 37.0721 40.9183 37.0854C40.9183 37.0988 41.0449 37.2987 41.2049 37.5319C41.3582 37.7652 41.5181 38.0184 41.5648 38.0917C41.6114 38.1584 41.7713 38.425 41.9313 38.6715C42.0912 38.9181 42.2512 39.178 42.2845 39.238C42.3845 39.4046 43.2442 40.7241 43.3774 40.9174C43.4441 41.0107 43.5107 41.1307 43.5374 41.184C43.564 41.2373 43.7306 41.5105 43.9106 41.7838C44.0972 42.057 44.3704 42.4902 44.5304 42.7368C44.6903 42.99 44.8636 43.2632 44.9169 43.3499C44.9702 43.4365 45.1501 43.7231 45.3167 43.983C45.4834 44.2429 45.6633 44.5294 45.7166 44.6094C45.8699 44.8493 46.403 45.7024 46.5363 45.9223C46.5963 46.0356 46.6363 46.1555 46.6163 46.1889C46.5696 46.2622 41.4581 46.2688 38.5325 46.2022L36.5799 46.1622L36.0001 45.2025C35.6802 44.6761 35.367 44.1629 35.307 44.0629C35.2403 43.963 35.1604 43.823 35.1204 43.7497C35.0804 43.6764 34.9938 43.5231 34.9205 43.4165C34.8471 43.3032 34.7605 43.1566 34.7205 43.0833C34.6805 43.01 34.6006 42.87 34.5339 42.7701C34.4739 42.6768 34.1541 42.157 33.8208 41.6172C33.4943 41.084 33.1744 40.5709 33.1211 40.4842C33.0678 40.3976 32.7945 39.9644 32.5213 39.5179C32.2481 39.0714 31.9748 38.6382 31.9215 38.5516C31.8682 38.4649 31.6883 38.1784 31.5217 37.9185C31.3551 37.6586 31.1685 37.3653 31.1085 37.2654C31.0418 37.1654 30.9685 37.0388 30.9419 36.9855C30.9152 36.9322 30.7686 36.6989 30.6087 36.4657C30.4487 36.2324 30.3221 36.0325 30.3221 36.0191C30.3221 35.9525 29.9689 35.4793 29.8889 35.4394C29.8289 35.3994 29.749 35.486 29.6357 35.7059C29.5424 35.8859 29.4024 36.1458 29.3225 36.2924C29.2358 36.4323 29.0226 36.8389 28.836 37.1854C28.656 37.5319 28.3895 38.0251 28.2562 38.285C26.7567 41.1107 26.3568 41.8904 24.9174 44.7627C24.2176 46.1622 23.6645 47.3418 23.6911 47.3818C23.8044 47.5617 23.9444 47.4084 25.044 45.8356C25.2172 45.5891 25.5171 45.1559 25.7171 44.876C26.2435 44.1229 27.2365 42.6568 28.5761 40.6375C29.2225 39.6579 29.789 38.8581 29.8289 38.8581C29.8756 38.8515 29.9222 38.9048 29.9422 38.9648C29.9689 39.0314 30.1288 39.3513 30.3154 39.6845C30.4954 40.0111 30.7486 40.4776 30.8686 40.7175C31.3751 41.6705 31.7149 42.3102 31.9548 42.7501C32.0948 43.01 32.328 43.4432 32.4747 43.7164C32.7679 44.2562 33.0278 44.7494 33.3277 45.2958C33.4343 45.4891 33.6076 45.809 33.7142 45.9956C33.9208 46.3821 34.2607 46.9952 34.4939 47.4151C34.5806 47.5617 34.7272 47.8349 34.8272 48.0215C34.9271 48.2081 35.0604 48.4281 35.1204 48.5147L35.2337 48.668L43.0176 48.5947C47.7359 48.5547 50.8215 48.5014 50.8614 48.4614C50.9014 48.4214 50.7681 48.1815 50.5082 47.8083C50.0284 47.1219 49.6485 46.5754 48.9421 45.5491C48.6689 45.1426 48.2824 44.5894 48.0891 44.3162C47.8958 44.043 47.536 43.5165 47.2827 43.1499C46.8095 42.4569 46.3031 41.7304 45.7899 40.984C45.63 40.7441 45.2701 40.231 45.0035 39.8378C44.737 39.4379 44.2838 38.7782 44.0039 38.3716C43.2775 37.3054 42.6444 36.379 41.838 35.1861C41.0383 33.9999 40.2919 32.9069 39.7921 32.1872C38.4392 30.2279 38.2992 29.988 38.3992 29.868C38.4525 29.808 38.5192 29.7081 38.5458 29.6548C38.5658 29.6014 38.7391 29.3282 38.919 29.055C39.099 28.7817 39.3722 28.3486 39.5321 28.0953C39.6921 27.8421 39.8654 27.5688 39.9187 27.4889C39.972 27.4089 40.1453 27.1357 40.3052 26.8824C40.4651 26.6292 40.7384 26.196 40.9183 25.9228C41.0983 25.6495 41.3715 25.2163 41.5314 24.9698C41.6914 24.7165 41.8646 24.4433 41.918 24.3566C41.9713 24.27 42.1445 23.9968 42.3045 23.7435C42.4644 23.497 42.7843 22.9905 43.0176 22.6239C43.2508 22.2574 43.5707 21.7509 43.7306 21.5043C43.8906 21.2511 44.0639 20.9779 44.1172 20.8979C44.2238 20.7313 44.7769 19.8583 44.8836 19.6716C44.9236 19.6117 45.0702 19.3784 45.2168 19.1585C45.3634 18.9386 45.51 18.7053 45.55 18.6453C45.6233 18.5187 45.9565 17.9923 46.6163 16.9593C46.8495 16.5928 47.2094 16.0196 47.416 15.6931C47.6226 15.3599 47.9358 14.8667 48.1224 14.5935C48.3023 14.3202 48.4756 14.0337 48.5156 13.9604C48.5556 13.887 48.7289 13.6005 48.9088 13.3272C49.202 12.8874 49.8885 11.8078 50.0817 11.4746C50.1217 11.4146 50.2683 11.1813 50.4149 10.9614C50.5615 10.7415 50.7082 10.5083 50.7481 10.4483C50.8481 10.2817 51.5212 9.20205 52.0144 8.429C52.2476 8.06246 52.6141 7.48267 52.8274 7.14279C53.0407 6.79625 53.2606 6.4497 53.3139 6.36307C53.3672 6.27643 53.5471 5.98987 53.7138 5.72996C53.8804 5.47005 54.0603 5.18349 54.1136 5.09685C54.1669 5.01022 54.3868 4.65701 54.6001 4.31713C54.8134 3.97725 55.1332 3.47076 55.3198 3.19753C55.4998 2.92429 55.6731 2.63773 55.713 2.56442C55.7464 2.49112 55.9263 2.19789 56.1129 1.91132C56.4794 1.33153 56.5061 1.26488 56.3195 1.26488C56.2462 1.26488 56.1196 1.39151 55.9929 1.57811Z" fill="white"/>
<path d="M24.2521 11.4273C24.2321 11.4407 20.8133 11.4606 16.6548 11.4606C12.4896 11.4673 9.04416 11.494 8.99751 11.5273C8.90421 11.5873 9.32406 12.2537 10.5303 13.9598C10.7636 14.2863 11.1701 14.8728 11.43 15.2593C11.6899 15.6458 12.0964 16.2256 12.3297 16.5588C12.5629 16.8854 13.0094 17.5318 13.316 17.9917C13.8358 18.7514 14.2356 19.3445 15.0554 20.5241C15.2153 20.764 15.6351 21.3771 15.9884 21.8903C16.9813 23.3564 17.7077 24.4294 18.2475 25.2224C18.5274 25.6223 19.0539 26.402 19.4271 26.9551C19.8003 27.5016 20.2402 28.148 20.4068 28.3879C20.5667 28.6279 20.8799 29.0744 21.0932 29.3876C21.3065 29.7008 21.4797 30.0007 21.4797 30.0673C21.4731 30.1273 21.3531 30.3472 21.2065 30.5672C20.9799 30.907 20.7267 31.2869 20.4934 31.6601C20.4601 31.7201 20.2935 31.9867 20.1269 32.2466C19.9603 32.5131 19.7937 32.7797 19.7603 32.8397C19.7204 32.8997 19.5737 33.1329 19.4205 33.3528C19.2738 33.5794 19.1339 33.7993 19.1072 33.8527C19.0806 33.906 18.914 34.1792 18.734 34.4524C18.5474 34.7257 18.2742 35.1589 18.1143 35.4054C17.9543 35.6587 17.781 35.9319 17.7277 36.0186C17.6744 36.1052 17.4945 36.3918 17.3279 36.6517C17.1613 36.9116 16.9813 37.1981 16.928 37.2848C16.8747 37.3714 16.7014 37.6446 16.5415 37.8979C16.3815 38.1445 16.0617 38.651 15.8284 39.0175C15.5952 39.384 15.2753 39.8905 15.1153 40.1371C14.9554 40.3903 14.7755 40.6702 14.7155 40.7702C14.6488 40.8702 14.5755 40.9968 14.5489 41.0501C14.5155 41.1034 14.2956 41.45 14.0557 41.8165C13.8158 42.183 13.5292 42.6295 13.4226 42.8028C13.316 42.9827 13.1827 43.196 13.1294 43.2826C13.0761 43.3693 12.9028 43.6425 12.7428 43.8957C12.5829 44.1423 12.263 44.6488 12.0298 45.0153C11.7965 45.3819 11.4766 45.8884 11.3167 46.1349C11.1567 46.3882 10.9768 46.6681 10.9168 46.7681C10.8502 46.868 10.7769 46.9946 10.7502 47.048C10.7236 47.1013 10.5836 47.3279 10.437 47.5478C10.2837 47.7744 10.1304 48.0143 10.0838 48.0876C9.88387 48.4141 9.21744 49.4804 8.83091 50.0802C8.59766 50.4467 8.23112 51.0265 8.01786 51.3664C7.59801 52.0395 7.57802 52.0728 7.13151 52.7792C6.96491 53.0392 6.79163 53.3191 6.74498 53.399C6.69833 53.479 6.46508 53.8455 6.23183 54.2121C5.99858 54.5786 5.63205 55.1584 5.41879 55.4983C5.20553 55.8382 4.98561 56.1914 4.9323 56.278C3.64609 58.3173 3.39951 58.7171 3.39951 58.7838C3.39951 58.8171 3.45283 58.8438 3.52613 58.8438C3.59944 58.8438 3.72606 58.7171 3.85268 58.5239C3.95931 58.3506 4.19923 57.9974 4.37916 57.7441C4.75903 57.211 5.23219 56.5312 5.64538 55.9248C5.97859 55.445 6.37845 54.8652 6.83162 54.2121C7.01156 53.9522 7.29146 53.5523 7.45806 53.3124C7.61801 53.0725 7.87791 52.6993 8.03119 52.4794C8.60432 51.653 8.91754 51.1998 9.23076 50.7466C9.40404 50.4867 9.68394 50.0935 9.84388 49.8603C10.9568 48.2542 11.25 47.8277 11.8298 46.9813C12.0897 46.5948 12.443 46.0816 12.6162 45.8284C13.1494 45.0687 13.5292 44.5089 14.0291 43.7825C14.289 43.3959 14.6422 42.8894 14.8088 42.6495C14.9687 42.4096 15.2686 41.9764 15.4685 41.6832C16.115 40.7502 16.7481 39.8305 17.028 39.4173C17.1813 39.1974 17.4812 38.7642 17.6944 38.451C18.1409 37.7979 18.8073 36.8316 19.2938 36.1318C19.4738 35.8653 19.6737 35.572 19.727 35.4854C19.7803 35.3988 19.9869 35.0922 20.1869 34.8057C20.3868 34.5191 20.7666 33.9726 21.0266 33.5861C21.2931 33.1996 21.653 32.6731 21.8263 32.4198C22.0062 32.1599 22.3727 31.6268 22.6393 31.2336C22.9126 30.8337 23.1925 30.4206 23.2724 30.3139C23.3924 30.154 23.4057 30.0873 23.3524 29.9341C23.2924 29.7741 22.586 28.6479 22.2528 28.1747C22.1861 28.0747 22.1262 27.9748 22.1262 27.9548C22.1262 27.9348 22.0662 27.8348 21.9995 27.7348C21.7996 27.4549 20.9599 26.1621 20.9333 26.0888C20.9199 26.0554 20.78 25.8422 20.6267 25.6223C20.4734 25.4023 20.3268 25.1758 20.3001 25.1224C20.2202 24.9492 19.3272 23.563 19.0539 23.1765C18.9873 23.0765 18.9273 22.9832 18.9273 22.9632C18.9273 22.9499 18.7074 22.6033 18.4475 22.1968C18.1809 21.7903 17.841 21.2705 17.7011 21.0439C17.5545 20.8106 17.2746 20.3708 17.068 20.0576C16.868 19.7444 16.5748 19.2779 16.4082 19.0246C16.2416 18.7647 16.0283 18.4382 15.935 18.2915C15.8351 18.1449 15.7351 17.9783 15.7085 17.925C15.6818 17.8717 15.5152 17.5985 15.3353 17.3252C15.1487 17.052 14.8754 16.6188 14.7155 16.3722C14.5555 16.119 14.3756 15.8391 14.3156 15.7391C14.249 15.6392 14.1757 15.5125 14.149 15.4592C14.1224 15.4059 13.9757 15.1727 13.8158 14.9461C13.6559 14.7128 13.5292 14.5129 13.5292 14.4929C13.5292 14.4796 13.4559 14.353 13.3626 14.2197C13.2693 14.0864 13.196 13.9464 13.196 13.9198C13.196 13.8864 15.4619 13.8598 18.2276 13.8598H23.2524L23.9389 14.9994C24.3187 15.6192 24.6786 16.2123 24.7386 16.3123C24.8052 16.4122 24.8918 16.5522 24.9252 16.6255C25.0118 16.7788 25.1451 17.012 25.3117 17.2719C25.3717 17.3719 25.7382 17.965 26.1247 18.5914C26.5113 19.2179 26.8711 19.8043 26.9245 19.891C26.9778 19.9776 27.2443 20.4041 27.5109 20.8373C27.7775 21.2705 28.1907 21.9236 28.4306 22.2901C28.6638 22.6567 28.8771 23.0032 28.9037 23.0565C28.9304 23.1098 29.077 23.3431 29.237 23.5763C29.3969 23.8096 29.5235 24.0095 29.5235 24.0228C29.5235 24.0961 29.9434 24.6559 29.9967 24.6559C30.03 24.6559 30.09 24.5893 30.1233 24.5027C30.19 24.3627 30.3099 24.1361 30.8697 23.1232C31.1963 22.5234 31.7227 21.5237 33.0289 19.0246C33.2622 18.5848 34.0686 16.992 34.8216 15.4859C36.0945 12.9534 36.2678 12.5269 36.0612 12.5269C36.0345 12.5269 35.8346 12.7735 35.6214 13.0734C35.4081 13.38 35.1215 13.7732 34.9882 13.9598C34.855 14.1397 34.6017 14.4929 34.4351 14.7461C34.2618 14.9927 33.9819 15.3992 33.8087 15.6458C33.0889 16.6855 32.3825 17.7317 31.2696 19.4045C30.6231 20.3841 30.0567 21.1838 30.0233 21.1838C29.9834 21.1905 29.8301 20.9573 29.6835 20.6707C29.5369 20.3908 29.2636 19.871 29.077 19.5244C28.8904 19.1779 28.5972 18.6181 28.4239 18.2915C28.2506 17.9583 28.0174 17.5252 27.9108 17.3252C27.6309 16.8254 27.4109 16.4189 26.9511 15.5592C26.7379 15.1527 26.5313 14.7795 26.4913 14.7128C26.458 14.6528 26.3513 14.4596 26.258 14.2796C26.1647 14.1064 26.0048 13.8131 25.9048 13.6265C25.7049 13.2933 25.4516 12.8202 25.0385 12.0738C24.7452 11.5273 24.6253 11.394 24.4387 11.394C24.352 11.394 24.2654 11.4073 24.2521 11.4273Z" fill="white"/>
<path d="M57.0483 14.256V22.4394H64.3006V23.4194H57.0483V42.3832C57.0483 43.9186 57.326 44.9967 57.8813 45.6174C58.4367 46.2381 59.2044 46.5484 60.1844 46.5484C61.1645 46.5484 62.0138 46.1564 62.7325 45.3724C63.4512 44.5557 64.0719 43.1999 64.5946 41.3052L65.5747 41.5502C65.248 43.4449 64.5946 45.0457 63.6146 46.3524C62.6672 47.6591 61.1971 48.3125 59.2044 48.3125C58.0937 48.3125 57.179 48.1655 56.4603 47.8715C55.7416 47.6101 55.1045 47.2181 54.5492 46.6954C53.8305 45.9441 53.3241 45.0457 53.0301 44.0003C52.7688 42.9549 52.6381 41.5665 52.6381 39.8351V23.4194H47.9339V22.4394H52.6381V14.942C53.4548 14.9094 54.2388 14.844 54.9902 14.746C55.7416 14.648 56.4276 14.4847 57.0483 14.256ZM78.8293 21.7043C79.7114 21.7043 80.4791 21.884 81.1324 22.2434C81.8185 22.6027 82.3412 23.0764 82.7005 23.6644C83.0925 24.2198 83.2885 24.8568 83.2885 25.5755C83.2885 26.3922 83.0272 27.1109 82.5045 27.7316C82.0145 28.3523 81.3448 28.6626 80.4954 28.6626C79.8094 28.6626 79.205 28.4503 78.6823 28.0256C78.1597 27.5683 77.8983 26.9312 77.8983 26.1145C77.8983 25.4938 78.0616 24.9711 78.3883 24.5465C78.7477 24.0891 79.1397 23.7298 79.5644 23.4684C79.3357 23.1417 78.9927 22.9784 78.5353 22.9784C77.5226 22.9784 76.5916 23.2887 75.7422 23.9094C74.8928 24.4975 74.1741 25.2652 73.5861 26.2125C72.9981 27.1599 72.5407 28.1726 72.2141 29.2507C71.8874 30.296 71.724 31.2761 71.724 32.1908V42.5792C71.724 44.18 72.1814 45.258 73.0961 45.8134C74.0435 46.3361 75.3175 46.5974 76.9183 46.5974V47.6265C76.1669 47.5938 75.1052 47.5611 73.7331 47.5285C72.3611 47.4631 70.9073 47.4305 69.3719 47.4305C68.2612 47.4305 67.1505 47.4631 66.0398 47.5285C64.9617 47.5611 64.145 47.5938 63.5897 47.6265V46.5974C64.9291 46.5974 65.8764 46.3524 66.4318 45.8624C67.0198 45.3724 67.3138 44.4413 67.3138 43.0693V27.7316C67.3138 26.2615 67.0525 25.1835 66.5298 24.4975C66.0071 23.7788 65.0271 23.4194 63.5897 23.4194V22.3904C64.6351 22.4884 65.6478 22.5374 66.6278 22.5374C67.5752 22.5374 68.4736 22.4884 69.3229 22.3904C70.205 22.2597 71.0053 22.08 71.724 21.8513V27.9766C72.0834 27.0292 72.5897 26.0819 73.2431 25.1345C73.9291 24.1544 74.7458 23.3377 75.6932 22.6844C76.6406 22.031 77.686 21.7043 78.8293 21.7043ZM89.4291 47.9695C88.0897 47.9695 86.93 47.7245 85.95 47.2344C84.9699 46.7118 84.2186 45.9931 83.6959 45.0784C83.2058 44.1636 82.9608 43.1019 82.9608 41.8932C82.9608 40.4558 83.2875 39.2798 83.9409 38.3651C84.6269 37.4504 85.4926 36.7153 86.538 36.16C87.5834 35.6046 88.6778 35.1473 89.8211 34.7879C90.9972 34.3959 92.1079 34.0365 93.1533 33.7099C94.1987 33.3505 95.048 32.9422 95.7014 32.4848C96.3874 32.0275 96.7304 31.4231 96.7304 30.6717V27.6336C96.7304 26.2615 96.5181 25.2162 96.0934 24.4975C95.7014 23.7788 95.1624 23.3051 94.4763 23.0764C93.7903 22.8151 93.0226 22.6844 92.1732 22.6844C91.3565 22.6844 90.4745 22.7987 89.5271 23.0274C88.6124 23.2561 87.8774 23.7298 87.322 24.4485C87.9427 24.5791 88.4817 24.9058 88.9391 25.4285C89.3965 25.9512 89.6251 26.6209 89.6251 27.4376C89.6251 28.2543 89.3638 28.9077 88.8411 29.3977C88.3184 29.855 87.6487 30.0837 86.832 30.0837C85.8846 30.0837 85.1823 29.7897 84.7249 29.2017C84.3002 28.581 84.0879 27.8949 84.0879 27.1436C84.0879 26.2942 84.3002 25.6082 84.7249 25.0855C85.1496 24.5628 85.6886 24.0728 86.342 23.6154C87.0934 23.0927 88.0571 22.6517 89.2331 22.2924C90.4418 21.9003 91.7976 21.7043 93.3003 21.7043C94.6397 21.7043 95.7831 21.8677 96.7304 22.1944C97.6778 22.4884 98.4618 22.9294 99.0825 23.5174C99.9319 24.3015 100.487 25.2652 100.749 26.4085C101.01 27.5193 101.141 28.8586 101.141 30.4267V44.0493C101.141 44.866 101.255 45.454 101.484 45.8134C101.745 46.1727 102.137 46.3524 102.66 46.3524C103.019 46.3524 103.362 46.2707 103.689 46.1074C104.015 45.9441 104.407 45.6827 104.865 45.3234L105.404 46.1564C104.718 46.6791 104.064 47.1201 103.444 47.4795C102.823 47.8061 101.99 47.9695 100.945 47.9695C99.9972 47.9695 99.2132 47.8061 98.5925 47.4795C97.9718 47.1528 97.4981 46.6791 97.1715 46.0584C96.8774 45.405 96.7304 44.5883 96.7304 43.6083C95.8484 45.0784 94.7867 46.1727 93.5453 46.8914C92.3366 47.6101 90.9645 47.9695 89.4291 47.9695ZM91.1932 46.0094C92.2712 46.0094 93.2676 45.699 94.1823 45.0784C95.1297 44.4577 95.9791 43.5266 96.7304 42.2852V32.6808C96.3384 33.2362 95.7667 33.7099 95.0154 34.1019C94.264 34.4612 93.4473 34.8369 92.5653 35.2289C91.6832 35.5883 90.8338 36.0293 90.0171 36.552C89.2331 37.042 88.5797 37.6954 88.0571 38.5121C87.5344 39.3288 87.273 40.3905 87.273 41.6972C87.273 43.0039 87.616 44.0493 88.3021 44.8333C89.0208 45.6174 89.9845 46.0094 91.1932 46.0094ZM112.952 56.8389C111.221 56.8389 109.588 56.6592 108.052 56.2998C106.517 55.9405 105.275 55.3688 104.328 54.5848C103.413 53.8334 102.956 52.8697 102.956 51.6936C102.956 50.5503 103.413 49.5702 104.328 48.7535C105.243 47.9368 106.484 47.3161 108.052 46.8914L108.346 47.6755C107.628 47.9041 107.056 48.3615 106.631 49.0475C106.206 49.7336 105.994 50.5013 105.994 51.3506C105.994 52.8534 106.68 53.9967 108.052 54.7808C109.457 55.5975 111.27 56.0058 113.491 56.0058C114.962 56.0058 116.399 55.8098 117.804 55.4178C119.208 55.0585 120.368 54.4378 121.283 53.5557C122.198 52.6737 122.655 51.514 122.655 50.0766C122.655 48.9985 122.263 48.1165 121.479 47.4305C120.727 46.7118 119.225 46.3524 116.971 46.3524H113.344C112.299 46.3524 111.286 46.2707 110.306 46.1074C109.326 45.9441 108.526 45.601 107.905 45.0784C107.285 44.5557 106.974 43.7553 106.974 42.6772C106.974 41.5665 107.432 40.5048 108.346 39.4921C109.261 38.4467 110.943 37.385 113.393 36.307L113.981 36.748C112.871 37.336 111.907 37.9404 111.09 38.5611C110.274 39.1491 109.865 39.8515 109.865 40.6682C109.865 41.7135 110.649 42.2362 112.217 42.2362H118.343C119.715 42.2362 120.972 42.4322 122.116 42.8243C123.292 43.2163 124.239 43.837 124.958 44.6863C125.677 45.5357 126.036 46.6464 126.036 48.0185C126.036 49.5539 125.546 50.9913 124.566 52.3307C123.586 53.6701 122.116 54.7481 120.156 55.5648C118.228 56.4142 115.827 56.8389 112.952 56.8389ZM113.197 37.189C111.597 37.189 110.143 36.9277 108.836 36.405C107.53 35.8496 106.5 35.0002 105.749 33.8569C104.998 32.7135 104.622 31.2434 104.622 29.4467C104.622 27.6499 104.998 26.1799 105.749 25.0365C106.5 23.8931 107.53 23.0601 108.836 22.5374C110.143 21.982 111.597 21.7043 113.197 21.7043C114.831 21.7043 116.285 21.982 117.559 22.5374C118.865 23.0601 119.894 23.8931 120.646 25.0365C121.397 26.1799 121.773 27.6499 121.773 29.4467C121.773 31.2434 121.397 32.7135 120.646 33.8569C119.894 35.0002 118.865 35.8496 117.559 36.405C116.285 36.9277 114.831 37.189 113.197 37.189ZM113.197 36.307C114.439 36.307 115.403 35.817 116.089 34.8369C116.807 33.8569 117.167 32.0601 117.167 29.4467C117.167 26.8332 116.807 25.0365 116.089 24.0564C115.403 23.0764 114.439 22.5864 113.197 22.5864C111.989 22.5864 111.025 23.0764 110.306 24.0564C109.588 25.0365 109.228 26.8332 109.228 29.4467C109.228 32.0601 109.588 33.8569 110.306 34.8369C111.025 35.817 111.989 36.307 113.197 36.307ZM120.254 25.7715L119.372 25.4285C119.829 24.3178 120.613 23.3377 121.724 22.4884C122.835 21.639 123.994 21.2143 125.203 21.2143C126.052 21.2143 126.738 21.4593 127.261 21.9493C127.784 22.4067 128.045 23.1091 128.045 24.0564C128.045 25.0692 127.767 25.7878 127.212 26.2125C126.689 26.6046 126.15 26.8006 125.595 26.8006C125.105 26.8006 124.648 26.6372 124.223 26.3105C123.798 25.9512 123.553 25.3958 123.488 24.6445C123.423 23.8931 123.651 22.9294 124.174 21.7533L124.811 21.9003C123.439 22.423 122.459 22.9784 121.871 23.5664C121.283 24.1218 120.744 24.8568 120.254 25.7715ZM130.315 47.6265V11.2669H133.794V47.6265H130.315ZM151.462 47.8715C148.783 47.8715 146.431 47.3161 144.406 46.2054C142.38 45.062 140.796 43.5103 139.652 41.5502C138.509 39.5574 137.937 37.287 137.937 34.7389C137.937 32.1908 138.476 29.9367 139.554 27.9766C140.665 26.0165 142.168 24.4811 144.063 23.3704C145.99 22.227 148.146 21.6553 150.531 21.6553C152.948 21.6553 155.088 22.2107 156.95 23.3214C158.845 24.3995 160.331 25.9349 161.409 27.9276C162.487 29.8877 163.026 32.1581 163.026 34.7389C163.026 34.9022 163.01 35.0819 162.977 35.2779C162.977 35.4413 162.977 35.6209 162.977 35.817H140.584V33.2198H161.115L159.743 34.2489C159.743 32.3868 159.335 30.7371 158.518 29.2997C157.734 27.8296 156.656 26.6862 155.284 25.8695C153.912 25.0528 152.328 24.6445 150.531 24.6445C148.767 24.6445 147.182 25.0528 145.778 25.8695C144.373 26.6862 143.279 27.8296 142.495 29.2997C141.711 30.7697 141.319 32.4521 141.319 34.3469V34.8859C141.319 36.846 141.743 38.5774 142.593 40.0801C143.475 41.5502 144.683 42.7099 146.219 43.5593C147.787 44.376 149.567 44.7843 151.56 44.7843C153.128 44.7843 154.582 44.5067 155.921 43.9513C157.293 43.3959 158.469 42.5466 159.449 41.4032L161.409 43.6573C160.266 45.0294 158.829 46.0747 157.097 46.7934C155.398 47.5121 153.52 47.8715 151.462 47.8715ZM182.572 47.6265V41.9422L182.425 41.0112V31.5048C182.425 29.316 181.804 27.6336 180.563 26.4575C179.354 25.2815 177.541 24.6935 175.124 24.6935C173.457 24.6935 171.873 24.9711 170.37 25.5265C168.868 26.0819 167.594 26.8169 166.548 27.7316L164.98 25.1345C166.287 24.0238 167.855 23.1744 169.684 22.5864C171.514 21.9657 173.441 21.6553 175.467 21.6553C178.799 21.6553 181.363 22.4884 183.16 24.1544C184.989 25.7878 185.904 28.287 185.904 31.6518V47.6265H182.572ZM173.702 47.8715C171.775 47.8715 170.093 47.5611 168.655 46.9404C167.25 46.2871 166.172 45.405 165.421 44.2943C164.67 43.1509 164.294 41.8442 164.294 40.3741C164.294 39.0348 164.604 37.826 165.225 36.748C165.878 35.6373 166.924 34.7552 168.361 34.1019C169.831 33.4158 171.791 33.0728 174.241 33.0728H183.111V35.6699H174.339C171.857 35.6699 170.125 36.111 169.145 36.993C168.198 37.875 167.724 38.9694 167.724 40.2761C167.724 41.7462 168.296 42.9223 169.439 43.8043C170.583 44.6863 172.183 45.1274 174.241 45.1274C176.202 45.1274 177.884 44.6863 179.289 43.8043C180.726 42.8896 181.771 41.5829 182.425 39.8841L183.209 42.2852C182.555 43.984 181.412 45.3397 179.779 46.3524C178.178 47.3651 176.153 47.8715 173.702 47.8715ZM224.559 21.6553C226.65 21.6553 228.463 22.0637 229.998 22.8804C231.566 23.6644 232.775 24.8731 233.624 26.5065C234.506 28.14 234.947 30.198 234.947 32.6808V47.6265H231.468V33.0238C231.468 30.3124 230.815 28.2706 229.508 26.8986C228.234 25.4938 226.421 24.7915 224.069 24.7915C222.305 24.7915 220.769 25.1672 219.463 25.9185C218.189 26.6372 217.192 27.6989 216.474 29.1037C215.788 30.4757 215.445 32.1418 215.445 34.1019V47.6265H211.965V33.0238C211.965 30.3124 211.312 28.2706 210.005 26.8986C208.699 25.4938 206.869 24.7915 204.517 24.7915C202.786 24.7915 201.267 25.1672 199.96 25.9185C198.653 26.6372 197.64 27.6989 196.922 29.1037C196.236 30.4757 195.893 32.1418 195.893 34.1019V47.6265H192.414V21.9003H195.746V28.8586L195.207 27.6336C195.991 25.7715 197.248 24.3178 198.98 23.2724C200.744 22.1944 202.818 21.6553 205.203 21.6553C207.719 21.6553 209.858 22.2924 211.622 23.5664C213.387 24.8078 214.53 26.6862 215.053 29.2017L213.681 28.6626C214.432 26.5719 215.755 24.8895 217.65 23.6154C219.577 22.3087 221.88 21.6553 224.559 21.6553Z" fill="white"/>
</svg>
